<?xml version="1.0" standalone="no"?>
<!DOCTYPE svg PUBLIC "-//W3C//DTD SVG 20010904//EN"
 "http://www.w3.org/TR/2001/REC-SVG-20010904/DTD/svg10.dtd">
<svg version="1.0" xmlns="http://www.w3.org/2000/svg"
 width="340.000000pt" height="340.000000pt" viewBox="0 0 340.000000 340.000000"
 preserveAspectRatio="xMidYMid meet">
<metadata>
Created by potrace 1.14, written by Peter Selinger 2001-2017
</metadata>
<g transform="translate(0.000000,340.000000) scale(0.100000,-0.100000)"
fill="#000000" stroke="none">
<path d="M1610 3137 c-70 -18 -70 -38 -4 -129 l36 -48 21 27 c12 16 24 30 28
33 3 3 12 22 19 42 11 29 11 40 1 52 -20 24 -62 34 -101 23z"/>
<path d="M1258 3094 c-2 -1 -19 -5 -38 -8 -60 -10 -179 -51 -190 -66 -3 -4
-18 -14 -35 -23 -44 -23 -185 -151 -185 -168 0 -3 -9 -17 -21 -30 -43 -50 -98
-176 -125 -290 -12 -50 -13 -191 -1 -210 27 -43 34 -26 62 131 10 52 53 155
91 217 98 157 230 268 369 308 51 15 139 21 175 11 8 -2 29 -7 46 -11 17 -4
53 -24 80 -44 39 -29 58 -55 91 -121 23 -47 43 -89 45 -94 8 -19 47 16 59 51
7 21 28 65 48 98 29 48 47 65 91 87 113 57 243 51 368 -18 148 -80 229 -169
326 -354 46 -88 55 -99 66 -85 31 38 -2 181 -68 290 -116 192 -325 321 -535
329 -121 5 -212 -24 -263 -84 -12 -14 -33 -38 -47 -54 l-25 -28 -43 47 c-63
68 -119 101 -194 112 -31 4 -144 10 -147 7z"/>
<path d="M1225 2917 c-8 -4 -15 -5 -15 -1 0 3 -6 2 -12 -3 -7 -6 -30 -16 -50
-22 -21 -7 -38 -17 -38 -22 0 -6 -4 -8 -8 -5 -15 9 -132 -89 -181 -152 -100
-127 -136 -233 -145 -426 -3 -58 1 -62 106 -118 125 -68 687 -348 697 -348 6
0 14 8 19 18 12 23 7 827 -5 872 -31 112 -91 181 -178 205 -40 12 -171 13
-190 2z m-135 -179 c-19 -13 -41 -28 -48 -35 -7 -7 -21 -18 -31 -25 -22 -16
-91 -112 -91 -127 0 -6 -4 -11 -8 -11 -4 0 -19 -21 -32 -47 l-25 -48 -3 31
c-10 97 153 276 258 283 8 0 -1 -9 -20 -21z"/>
<path d="M1873 2921 c-50 -13 -96 -37 -119 -63 -27 -32 -61 -104 -72 -153 -6
-31 -10 -783 -3 -805 1 -3 5 0 9 5 6 10 334 208 442 267 25 14 86 50 135 81
50 30 125 76 168 102 55 33 77 52 77 67 0 34 -51 150 -96 218 -50 76 -123 152
-179 189 -22 14 -42 28 -45 31 -7 8 -107 50 -134 57 -38 10 -150 12 -183 4z"/>
<path d="M2690 2595 c-14 -17 -7 -57 16 -93 8 -12 54 -42 102 -65 159 -77 263
-202 371 -449 21 -49 37 -71 60 -83 28 -14 32 -14 37 0 13 32 4 136 -16 200
-6 17 -16 48 -23 70 -46 146 -170 286 -324 364 -39 19 -186 71 -203 71 -4 0
-13 -7 -20 -15z"/>
<path d="M2514 2322 c-144 -96 -476 -292 -493 -292 -6 0 -11 -4 -11 -9 0 -5
-8 -12 -19 -16 -10 -3 -56 -28 -101 -55 -45 -28 -86 -50 -91 -50 -5 0 -9 -4
-9 -10 0 -5 -5 -10 -10 -10 -19 0 -78 -45 -93 -70 -10 -18 -13 -58 -12 -150 2
-92 -2 -137 -13 -172 l-16 -47 28 -22 c16 -12 47 -39 70 -60 44 -40 54 -49
137 -119 30 -25 112 -96 184 -159 71 -62 159 -139 195 -170 36 -31 75 -66 88
-78 13 -13 26 -23 30 -23 4 -1 23 -14 42 -30 39 -34 80 -39 97 -11 10 16 7 29
-18 78 -31 59 -34 72 -45 198 -28 334 -33 486 -20 695 4 52 6 101 6 108 0 31
0 39 5 77 2 22 6 69 9 105 14 179 28 206 117 214 86 7 141 -16 369 -159 84
-52 155 -94 157 -92 6 7 -81 164 -112 203 -58 73 -112 114 -241 182 -34 17
-70 32 -80 32 -11 0 -78 -40 -150 -88z"/>
<path d="M424 2231 c-94 -58 -115 -169 -50 -268 31 -47 65 -73 96 -73 35 0 21
-17 -15 -18 -51 -2 -100 -28 -140 -75 -65 -75 -70 -172 -14 -254 25 -35 35
-43 52 -38 21 6 20 5 -3 -14 -101 -83 -125 -129 -125 -236 1 -86 18 -133 70
-187 83 -89 238 -105 339 -36 75 52 111 118 111 207 0 81 -29 144 -93 202
l-44 39 58 -1 c132 -4 202 22 287 105 33 31 65 56 73 56 9 0 12 -4 9 -10 -3
-5 -12 -10 -19 -10 -6 0 -27 -15 -45 -34 -27 -28 -35 -45 -39 -85 -4 -44 -9
-53 -41 -76 -57 -39 -98 -105 -96 -155 2 -42 19 -98 38 -125 26 -37 76 -83
100 -91 9 -3 17 -10 17 -15 0 -17 26 15 49 58 11 23 31 52 43 65 29 31 92 78
104 78 4 0 -3 -8 -16 -17 -53 -37 -90 -78 -125 -135 -19 -33 -35 -63 -35 -68
0 -5 -6 -15 -13 -22 -19 -19 -64 -115 -81 -176 -9 -33 -14 -85 -13 -140 3
-108 32 -175 113 -256 61 -63 82 -72 56 -23 -33 58 -46 129 -45 232 1 193 86
357 256 495 43 36 123 100 176 143 53 43 110 91 128 107 l32 29 -20 42 c-11
22 -19 42 -17 43 2 1 15 8 30 15 26 13 38 46 30 85 -3 13 -6 15 -11 7 -5 -7
-22 -14 -39 -17 -39 -6 -72 24 -72 66 0 46 55 73 96 47 15 -9 24 1 17 19 -5
13 -41 33 -86 48 -9 3 -30 1 -45 -5 -28 -11 -82 -63 -82 -80 0 -18 -2 -24 -12
-36 -5 -6 -16 -9 -24 -6 -7 3 -32 -4 -54 -16 -51 -26 -51 -21 -1 12 22 15 61
49 87 77 26 27 53 50 60 50 8 0 14 6 14 14 0 8 -115 72 -272 151 -150 76 -300
152 -333 170 -255 136 -290 152 -340 154 -34 1 -60 -5 -81 -18z m123 -63 c32
-34 33 -69 5 -106 -42 -55 -132 -22 -132 49 0 69 82 106 127 57z m672 -364
c44 -55 9 -118 -58 -108 -34 6 -49 20 -57 57 -5 26 -2 35 20 54 36 30 70 29
95 -3z m-739 -44 c11 -6 21 -26 25 -51 6 -34 3 -44 -16 -65 -48 -51 -132 -19
-132 51 0 61 65 96 123 65z m638 -196 c12 -4 29 -19 37 -35 29 -55 -18 -107
-82 -90 -53 14 -62 82 -15 117 19 15 28 16 60 8z m274 -51 c36 -32 11 -109
-37 -114 -53 -4 -85 26 -79 74 7 60 70 81 116 40z m-962 3 c0 -2 -11 -6 -25
-8 -13 -3 -22 -1 -19 3 5 9 44 13 44 5z m838 -224 c9 11 9 18 -1 28 -6 8 -3 7
9 -3 11 -9 31 -17 45 -18 21 -1 -27 -18 -93 -34 -9 -2 -26 -9 -38 -15 -12 -6
-24 -10 -26 -7 -2 2 14 12 36 22 34 15 38 20 29 37 -6 11 -7 27 -3 36 5 13 10
8 18 -21 10 -32 14 -36 24 -25z m-250 16 c26 -29 23 -75 -8 -100 -39 -31 -110
3 -110 52 0 63 75 93 118 48z"/>
<path d="M2604 2042 c0 -59 -3 -123 -8 -142 -4 -19 -9 -46 -11 -60 -2 -14 -7
-43 -11 -65 -4 -22 -7 -46 -6 -52 2 -7 -1 -13 -5 -13 -4 0 -8 -12 -9 -27 -1
-37 -15 -163 -21 -188 -7 -33 -14 -445 -8 -456 7 -10 55 42 55 60 0 6 4 11 8
11 8 0 103 172 103 187 0 4 8 16 16 26 9 9 13 17 10 17 -4 0 3 21 13 46 11 25
22 55 24 67 2 12 9 34 15 50 6 15 8 27 6 27 -2 0 0 11 5 24 12 32 22 101 24
156 0 25 6 48 11 52 7 5 7 8 0 8 -5 0 -11 28 -11 63 -1 51 0 58 9 37 11 -28
17 -48 21 -70 1 -9 5 -21 9 -27 4 -6 10 -44 13 -84 3 -40 7 -76 10 -81 3 -4 2
-8 -3 -8 -4 0 -9 -17 -9 -38 -2 -59 -11 -115 -23 -145 -6 -15 -10 -31 -9 -35
1 -4 -3 -16 -9 -28 -7 -11 -14 -34 -17 -50 -3 -16 -10 -30 -15 -32 -6 -2 -8
-9 -5 -17 3 -7 1 -16 -5 -20 -6 -3 -11 -15 -11 -26 0 -10 -4 -19 -8 -19 -4 0
-12 -12 -18 -27 -13 -34 -87 -132 -143 -191 -56 -59 -42 -95 32 -83 29 5 45 9
70 19 16 7 31 12 33 12 3 0 25 14 49 30 24 17 47 30 50 30 8 0 133 125 155
155 33 45 71 107 62 101 -6 -3 0 13 12 37 30 56 53 175 50 262 -3 92 -11 130
-44 217 -51 137 -182 277 -324 347 -45 22 -92 42 -106 45 l-25 5 -1 -107z"/>
<path d="M2519 2078 c-2 -8 -8 -38 -14 -78 -14 -79 -21 -248 -11 -257 3 -4 6
7 7 23 0 16 2 36 4 44 22 109 36 270 23 270 -5 0 -8 -1 -9 -2z"/>
<path d="M1600 1313 c-46 -32 -80 -66 -80 -81 0 -50 244 -179 428 -227 34 -8
69 -18 79 -21 19 -7 -19 32 -142 141 -43 39 -91 81 -105 95 -14 14 -44 38 -65
55 -22 16 -46 35 -53 42 -18 17 -33 16 -62 -4z"/>
<path d="M1363 1113 c-86 -80 -128 -161 -140 -273 -8 -77 -8 -79 -16 -86 -13
-13 -28 52 -30 129 -2 88 -8 87 -52 -8 -22 -49 -26 -99 -11 -182 19 -112 147
-262 285 -332 75 -39 133 -52 237 -56 100 -3 190 10 261 40 18 8 33 12 33 10
0 -8 94 47 135 79 114 87 186 215 181 323 -1 42 -7 58 -31 82 -16 18 -44 33
-64 37 -20 4 -45 8 -56 10 -54 10 -92 17 -107 20 -44 7 -180 48 -238 70 -120
47 -265 137 -293 181 -14 23 -31 15 -94 -44z"/>
<path d="M710 964 c-101 -41 -111 -193 -23 -343 35 -61 134 -158 213 -211 71
-47 239 -134 246 -127 5 4 -100 67 -111 67 -12 0 -92 57 -126 90 -105 101
-141 254 -99 416 20 78 6 108 -55 120 -6 1 -26 -5 -45 -12z"/>
</g>
</svg>
